<?xml version="1.0" standalone="no"?>
<!DOCTYPE svg PUBLIC "-//W3C//DTD SVG 20010904//EN"
 "http://www.w3.org/TR/2001/REC-SVG-20010904/DTD/svg10.dtd">
<svg version="1.0" xmlns="http://www.w3.org/2000/svg"
 width="366.000000pt" height="366.000000pt" viewBox="0 0 366.000000 366.000000"
 preserveAspectRatio="xMidYMid meet">
<metadata>
Created by potrace 1.11, written by Peter Selinger 2001-2013
</metadata>
<g transform="translate(0.000000,366.000000) scale(0.100000,-0.100000)"
fill="#000000" stroke="none">
<path d="M1510 3649 c-388 -44 -753 -211 -1048 -480 -61 -55 -62 -56 -42 -74
19 -17 21 -15 97 54 320 295 750 460 1198 461 174 0 275 -12 433 -51 660 -163
1164 -665 1332 -1328 59 -235 66 -549 16 -787 -78 -369 -246 -675 -517 -940
-213 -207 -442 -343 -723 -430 -85 -26 -95 -31 -90 -49 4 -11 8 -22 10 -24 2
-3 57 13 122 34 149 49 380 165 501 252 110 79 278 236 361 338 182 223 312
490 374 766 129 581 -19 1170 -409 1630 -248 291 -637 520 -1020 599 -185 38
-414 49 -595 29z"/>
<path d="M1674 3363 l8 -97 -68 92 c-44 60 -74 92 -87 92 -17 0 -18 -6 -12
-77 11 -142 17 -174 29 -170 11 4 11 62 0 162 l-6 50 68 -97 c46 -65 75 -98
88 -98 18 0 19 6 13 83 -4 45 -7 99 -7 120 0 28 -4 37 -16 37 -15 0 -16 -11
-10 -97z"/>
<path d="M2030 3434 c0 -3 -12 -57 -26 -120 -14 -64 -24 -117 -22 -119 9 -9
128 -28 135 -21 11 10 -14 23 -58 30 -41 7 -43 12 -33 65 7 33 15 35 87 15 11
-4 17 0 17 9 0 10 -14 18 -40 22 -47 8 -49 10 -43 54 5 32 7 33 43 27 21 -3
45 -9 54 -12 11 -4 16 -1 16 10 0 9 -3 16 -7 16 -5 1 -34 7 -65 14 -32 8 -58
12 -58 10z"/>
<path d="M1170 3348 c0 -11 68 -216 75 -226 1 -1 9 0 17 3 12 5 8 26 -26 120
-23 63 -47 115 -53 115 -7 0 -13 -6 -13 -12z"/>
<path d="M2421 3192 c-18 -59 -34 -114 -37 -123 -3 -10 3 -19 13 -23 12 -5 37
13 91 66 41 40 71 64 67 53 -32 -86 -55 -179 -47 -187 14 -14 29 -4 122 86 62
59 79 81 69 87 -10 6 -35 -13 -86 -64 -40 -39 -73 -69 -73 -67 0 3 13 46 29
97 40 129 28 136 -73 42 -42 -39 -76 -69 -76 -67 0 2 14 44 30 93 35 102 34
101 16 108 -9 4 -22 -24 -45 -101z"/>
<path d="M832 3190 c-41 -25 -56 -61 -40 -95 13 -30 44 -40 93 -31 44 9 75 -7
75 -39 0 -26 -33 -55 -62 -55 -10 0 -18 -7 -18 -15 0 -30 64 -8 97 35 19 24
15 68 -8 91 -18 18 -28 20 -79 14 -53 -6 -59 -5 -70 15 -9 18 -8 25 6 41 9 10
25 21 35 24 11 4 19 13 19 21 0 19 -9 18 -48 -6z"/>
<path d="M873 2587 c-112 -117 -225 -325 -269 -492 -19 -75 -27 -135 -31 -241
-7 -172 6 -272 53 -413 136 -408 473 -700 897 -776 139 -25 355 -17 485 18 51
13 95 27 98 30 3 3 3 15 -1 27 -5 15 -12 19 -23 15 -10 -4 -50 -15 -90 -26
-580 -150 -1188 210 -1341 793 -67 256 -41 515 74 756 50 104 85 159 161 248
50 58 52 63 35 78 -16 15 -20 13 -48 -17z"/>
<path d="M1220 2539 c0 -16 72 -111 133 -176 75 -80 44 -63 -63 33 -107 96
-130 112 -130 90 0 -8 41 -60 91 -115 49 -56 87 -101 84 -101 -4 0 -44 34 -88
76 -88 83 -124 110 -134 101 -8 -8 29 -55 118 -151 l74 -80 -75 63 c-96 81
-146 114 -162 109 -8 -3 61 -80 166 -186 189 -192 217 -211 278 -194 33 9 34
9 186 -149 l153 -158 -229 -253 c-126 -139 -234 -263 -241 -275 -15 -30 1 -63
32 -63 27 0 63 37 317 318 100 112 186 202 190 200 5 -2 128 -119 274 -261
232 -225 270 -258 294 -255 22 2 28 9 30 32 3 26 -22 55 -264 297 l-267 268
26 33 c15 18 54 62 86 98 l60 65 35 -34 c37 -36 50 -35 83 10 7 9 33 38 58 63
25 26 45 49 45 51 0 2 19 24 43 49 23 24 51 56 62 71 11 14 26 32 34 41 27 30
61 85 61 98 0 8 7 16 15 20 8 3 15 12 15 21 0 9 7 27 16 41 9 13 14 27 11 31
-4 3 -1 15 5 27 17 31 15 87 -3 124 l-17 32 -353 -389 -354 -390 -120 120
c-66 65 -125 119 -131 119 -6 0 -21 11 -34 25 -21 22 -24 36 -25 92 l0 65
-173 169 c-172 168 -212 202 -212 178z"/>
<path d="M195 1673 c-47 -5 -72 -23 -32 -23 20 0 30 -7 36 -24 10 -26 33 -38
56 -30 32 13 30 86 -3 82 -9 -1 -35 -3 -57 -5z m65 -33 c0 -25 -29 -38 -41
-19 -15 25 -10 39 16 39 18 0 25 -5 25 -20z"/>
<path d="M3180 1652 c0 -6 12 -19 28 -31 l27 -20 -32 -11 c-18 -7 -33 -16 -33
-20 0 -5 20 -2 45 7 25 8 55 13 65 10 11 -3 22 -1 25 3 3 5 -9 12 -27 16 -18
3 -47 18 -65 32 -18 13 -33 20 -33 14z"/>
<path d="M238 1452 c-59 -14 -83 -36 -28 -25 39 7 41 -17 3 -46 -19 -13 -23
-20 -12 -21 8 0 21 6 28 13 6 6 26 12 44 12 27 0 32 4 35 27 6 50 -6 56 -70
40z m58 -37 c-3 -9 -14 -15 -23 -13 -24 4 -29 35 -6 40 24 6 37 -7 29 -27z"/>
<path d="M3139 1413 c-15 -39 -7 -48 56 -62 56 -13 93 -8 41 5 -34 8 -31 38 4
42 43 6 49 24 8 21 -21 -2 -43 2 -50 9 -20 20 -48 14 -59 -15z m56 -17 c0 -22
-14 -29 -34 -17 -19 12 -6 43 16 39 10 -2 18 -12 18 -22z"/>
<path d="M311 1244 c-30 -14 -57 -27 -59 -29 -7 -7 19 -65 30 -65 5 0 4 9 -2
19 -14 27 -13 38 7 45 11 5 24 -1 36 -16 17 -20 18 -21 12 -3 -12 35 -10 39
11 43 15 2 23 -4 28 -20 4 -13 10 -18 12 -11 3 6 -1 23 -8 36 l-13 25 -54 -24z"/>
<path d="M3062 1215 c-18 -39 -16 -41 44 -65 60 -25 69 -22 79 25 l6 30 -16
-27 c-17 -30 -23 -32 -44 -19 -10 7 -11 13 -2 30 9 15 9 21 0 21 -6 0 -13 -9
-16 -20 -6 -22 -11 -24 -32 -11 -12 8 -13 14 -3 35 6 14 8 26 3 26 -4 0 -13
-11 -19 -25z"/>
<path d="M405 1043 c-58 -30 -60 -31 -53 -39 3 -3 25 4 49 16 l42 22 -33 -41
c-18 -23 -30 -44 -28 -47 3 -2 27 0 53 6 26 6 49 9 51 7 2 -1 -15 -14 -36 -27
-37 -23 -51 -40 -32 -40 14 1 102 70 102 81 0 11 -45 7 -94 -8 -16 -4 -14 2
12 35 31 38 40 63 25 62 -5 -1 -30 -13 -58 -27z"/>
<path d="M2990 1052 c0 -5 16 -27 36 -50 39 -46 38 -48 -29 -28 -26 8 -49 10
-52 5 -5 -8 34 -21 103 -35 42 -9 41 3 -8 65 -40 50 -50 59 -50 43z"/>
<path d="M555 815 c-28 -24 -45 -44 -38 -45 6 0 33 20 60 45 26 24 43 44 38
45 -6 0 -33 -20 -60 -45z"/>
<path d="M2895 816 c28 -24 54 -42 59 -39 11 7 -75 82 -94 82 -8 0 8 -19 35
-43z"/>
<path d="M681 705 c-38 -43 -39 -69 -6 -91 23 -15 27 -15 49 -1 26 17 72 77
60 77 -5 0 -25 -16 -45 -36 -64 -63 -96 -22 -38 49 39 47 21 49 -20 2z"/>
<path d="M2716 723 c-3 -4 15 -28 41 -55 l47 -48 23 22 c27 25 32 49 5 25 -27
-25 -37 -21 -75 23 -18 22 -37 37 -41 33z"/>
<path d="M2569 601 l-23 -18 38 -52 c39 -53 53 -56 86 -17 16 20 6 20 -23 1
-20 -13 -24 -13 -35 5 -10 17 -9 22 8 32 11 7 20 17 20 22 0 4 -11 1 -25 -8
-23 -15 -25 -15 -34 3 -8 15 -6 22 12 34 12 9 17 16 11 16 -7 1 -22 -7 -35
-18z"/>
<path d="M875 548 c-42 -58 -47 -68 -37 -68 5 0 21 17 36 38 l28 37 -7 -35
c-4 -19 -9 -43 -11 -52 -8 -26 8 -22 51 12 21 17 39 30 41 30 1 0 -9 -20 -23
-45 -13 -25 -20 -45 -15 -45 15 0 72 109 61 116 -6 3 -30 -11 -54 -31 -25 -20
-45 -35 -45 -33 0 2 6 26 14 55 13 48 12 63 -3 63 -3 0 -19 -19 -36 -42z"/>
<path d="M2355 476 c-19 -14 -19 -15 5 -66 13 -28 27 -53 32 -56 15 -9 68 27
74 50 6 24 -10 65 -30 78 -18 12 -61 9 -81 -6z m79 -18 c20 -29 20 -52 0 -72
-23 -24 -32 -20 -55 26 -20 40 -20 42 -3 55 25 19 41 16 58 -9z"/>
<path d="M1256 359 c-19 -64 -20 -96 -1 -53 12 26 19 31 42 28 l28 -4 -26 10
c-20 8 -26 16 -22 31 5 17 11 19 37 13 39 -8 24 11 -16 21 -25 6 -28 4 -42
-46z"/>
<path d="M1965 348 c-2 -7 1 -38 8 -68 12 -50 15 -55 37 -51 60 8 86 52 59
100 -12 21 -24 27 -57 29 -28 2 -44 -1 -47 -10z m79 -14 c9 -8 16 -26 16 -39
0 -43 -53 -75 -63 -37 -14 48 -17 74 -12 82 9 15 42 12 59 -6z"/>
<path d="M1483 342 c-6 -4 -16 -20 -22 -35 -31 -80 77 -124 110 -45 10 26 10
35 -2 57 -15 27 -62 39 -86 23z m69 -27 c13 -29 -1 -72 -28 -82 -24 -9 -57 33
-48 61 16 51 57 63 76 21z"/>
<path d="M1729 332 c-43 -35 -18 -122 35 -122 62 1 85 89 33 125 -28 20 -40
19 -68 -3z m71 -21 c15 -29 12 -49 -10 -71 -36 -36 -80 11 -60 65 12 31 54 34
70 6z"/>
</g>
</svg>
